<svg width="16" height="16" viewBox="0 0 16 16" fill="none" xmlns="http://www.w3.org/2000/svg">
<path d="M2.66788 2.29062C6.1691 2.2597 9.67179 2.29553 13.173 2.27271C13.2824 2.51551 13.3885 3.04675 12.9853 3.04025C9.55918 3.04834 6.13307 3.03866 2.70551 3.04516C2.61895 2.80063 2.62214 2.54324 2.66788 2.29062Z" fill="#0070BA" fill-opacity="0.4"/>
<path d="M3 4.0035C6.30512 4.00019 9.61196 3.997 12.9188 4.0051C11.6548 5.48154 10.3811 6.9499 9.11232 8.41971C9.109 10.1618 9.11724 11.9039 9.1074 13.6442C8.35129 13.2857 7.64756 12.8278 6.91272 12.4269C6.9094 11.0547 6.92083 9.68095 6.9078 8.30879C5.59806 6.87984 4.2999 5.44081 3 4.0035Z" fill="#0070BA" fill-opacity="0.4"/>
</svg>
