<svg width="16" height="16" viewBox="0 0 16 16" fill="none" xmlns="http://www.w3.org/2000/svg">
<path d="M11.3335 14C10.9668 14 10.6531 13.8696 10.3922 13.6087C10.1308 13.3473 10.0002 13.0333 10.0002 12.6667V12H8.66683C8.30016 12 7.98638 11.8696 7.7255 11.6087C7.46416 11.3473 7.3335 11.0333 7.3335 10.6667V5.33333H6.00016V6C6.00016 6.36667 5.8695 6.68044 5.60816 6.94133C5.34727 7.20267 5.0335 7.33333 4.66683 7.33333H2.66683C2.30016 7.33333 1.98638 7.20267 1.7255 6.94133C1.46416 6.68044 1.3335 6.36667 1.3335 6V3.33333C1.3335 2.96667 1.46416 2.65267 1.7255 2.39133C1.98638 2.13044 2.30016 2 2.66683 2H4.66683C5.0335 2 5.34727 2.13044 5.60816 2.39133C5.8695 2.65267 6.00016 2.96667 6.00016 3.33333V4H10.0002V3.33333C10.0002 2.96667 10.1308 2.65267 10.3922 2.39133C10.6531 2.13044 10.9668 2 11.3335 2H13.3335C13.7002 2 14.0142 2.13044 14.2755 2.39133C14.5364 2.65267 14.6668 2.96667 14.6668 3.33333V6C14.6668 6.36667 14.5364 6.68044 14.2755 6.94133C14.0142 7.20267 13.7002 7.33333 13.3335 7.33333H11.3335C10.9668 7.33333 10.6531 7.20267 10.3922 6.94133C10.1308 6.68044 10.0002 6.36667 10.0002 6V5.33333H8.66683V10.6667H10.0002V10C10.0002 9.63333 10.1308 9.31933 10.3922 9.058C10.6531 8.79711 10.9668 8.66667 11.3335 8.66667H13.3335C13.7002 8.66667 14.0142 8.79711 14.2755 9.058C14.5364 9.31933 14.6668 9.63333 14.6668 10V12.6667C14.6668 13.0333 14.5364 13.3473 14.2755 13.6087C14.0142 13.8696 13.7002 14 13.3335 14H11.3335Z" fill="#0070BA"/>
</svg>
