<svg width="25" height="25" viewBox="0 0 25 25" fill="none" xmlns="http://www.w3.org/2000/svg">
<path d="M11.1759 5.5C12.2339 5.49996 13.2709 5.79562 14.1698 6.35361C15.0687 6.91161 15.7938 7.70973 16.2632 8.65791C16.7325 9.60609 16.9276 10.6666 16.8262 11.7197C16.7249 12.7728 16.3312 13.7767 15.6896 14.6179L19.2792 18.209C19.415 18.3452 19.4938 18.5279 19.4996 18.7201C19.5055 18.9123 19.438 19.0995 19.3108 19.2437C19.1837 19.3879 19.0064 19.4784 18.8149 19.4966C18.6235 19.5148 18.4323 19.4595 18.2802 19.3419L18.2091 19.2791L14.6179 15.6896C13.9012 16.2361 13.0647 16.604 12.1775 16.763C11.2903 16.922 10.3781 16.8674 9.51618 16.6039C8.65428 16.3403 7.86755 15.8753 7.22107 15.2473C6.57459 14.6193 6.08696 13.8463 5.79852 12.9925C5.51008 12.1386 5.42913 11.2283 5.56236 10.337C5.6956 9.44558 6.03919 8.59876 6.5647 7.86654C7.09022 7.13432 7.78255 6.53777 8.58441 6.12624C9.38627 5.71472 10.2746 5.50005 11.1759 5.5ZM11.1759 7.0136C10.0719 7.0136 9.01316 7.45214 8.23253 8.23274C7.45191 9.01335 7.01335 10.0721 7.01335 11.176C7.01335 12.28 7.45191 13.3387 8.23253 14.1193C9.01316 14.8999 10.0719 15.3384 11.1759 15.3384C12.2799 15.3384 13.3386 14.8999 14.1193 14.1193C14.8999 13.3387 15.3384 12.28 15.3384 11.176C15.3384 10.0721 14.8999 9.01335 14.1193 8.23274C13.3386 7.45214 12.2799 7.0136 11.1759 7.0136Z" fill="#888888"/>
</svg>
