<svg width="24" height="24" viewBox="0 0 24 24" fill="none" xmlns="http://www.w3.org/2000/svg">
<path d="M2.30802 1.53284C8.72694 1.47616 15.1485 1.54184 21.5674 1.5C21.768 1.94514 21.9626 2.91909 21.2233 2.90717C14.9421 2.92201 8.66088 2.90425 2.37701 2.91617C2.21832 2.46787 2.22417 1.99597 2.30802 1.53284Z" fill="#0070BA"/>
<path d="M2.90967 4.82527C8.96905 4.81919 15.0316 4.81335 21.0941 4.82819C18.7768 7.53501 16.4417 10.227 14.1156 12.9217C14.1095 16.1154 14.1246 19.3092 14.1066 22.4999C12.7204 21.8426 11.4302 21.0032 10.083 20.2681C10.0769 17.7525 10.0979 15.2339 10.074 12.7183C7.67279 10.0986 5.29281 7.46033 2.90967 4.82527Z" fill="#0070BA"/>
</svg>
