<svg width="25" height="25" viewBox="0 0 25 25" fill="none" xmlns="http://www.w3.org/2000/svg">
<path d="M4.5 7.05557C4.5 6.64301 4.66857 6.24734 4.96863 5.95562C5.26869 5.66389 5.67565 5.5 6.1 5.5H18.9C19.3243 5.5 19.7313 5.66389 20.0314 5.95562C20.3314 6.24734 20.5 6.64301 20.5 7.05557V15.6112C20.5 16.0238 20.3314 16.4195 20.0314 16.7112C19.7313 17.0029 19.3243 17.1668 18.9 17.1668H15.2312L13.0656 19.2723C12.9156 19.4181 12.7121 19.5 12.5 19.5C12.2879 19.5 12.0844 19.4181 11.9344 19.2723L9.7688 17.1668H6.1C5.67565 17.1668 5.26869 17.0029 4.96863 16.7112C4.66857 16.4195 4.5 16.0238 4.5 15.6112V7.05557ZM18.9 7.05557H6.1V15.6112H10.1C10.3122 15.6113 10.5156 15.6932 10.6656 15.8391L12.5 17.6226L14.3344 15.8391C14.4844 15.6932 14.6878 15.6113 14.9 15.6112H18.9V7.05557ZM7.7 9.77783C7.7 9.57155 7.78429 9.37371 7.93431 9.22785C8.08434 9.08199 8.28783 9.00004 8.5 9.00004H16.5C16.7122 9.00004 16.9157 9.08199 17.0657 9.22785C17.2157 9.37371 17.3 9.57155 17.3 9.77783C17.3 9.98411 17.2157 10.1819 17.0657 10.3278C16.9157 10.4737 16.7122 10.5556 16.5 10.5556H8.5C8.28783 10.5556 8.08434 10.4737 7.93431 10.3278C7.78429 10.1819 7.7 9.98411 7.7 9.77783ZM7.7 12.889C7.7 12.6827 7.78429 12.4849 7.93431 12.339C8.08434 12.1931 8.28783 12.1112 8.5 12.1112H13.3C13.5122 12.1112 13.7157 12.1931 13.8657 12.339C14.0157 12.4849 14.1 12.6827 14.1 12.889C14.1 13.0953 14.0157 13.2931 13.8657 13.439C13.7157 13.5848 13.5122 13.6668 13.3 13.6668H8.5C8.28783 13.6668 8.08434 13.5848 7.93431 13.439C7.78429 13.2931 7.7 13.0953 7.7 12.889Z" fill="white"/>
</svg>
