<svg width="16" height="16" viewBox="0 0 16 16" fill="none" xmlns="http://www.w3.org/2000/svg">
<path d="M8.00014 10.0539C7.68713 10.0539 7.43359 9.80015 7.43359 9.48735V6.17732C7.43338 5.86453 7.68713 5.61078 8.00014 5.61078C8.31314 5.61078 8.56668 5.86453 8.56668 6.17732V9.48714C8.56668 9.80015 8.31293 10.0539 8.00014 10.0539Z" fill="#0070BA"/>
<path d="M9.92395 6.72149C10.0805 6.99261 9.98755 7.33905 9.71665 7.49555L6.85008 9.15046C6.57897 9.30696 6.23253 9.21406 6.07602 8.94316C5.91952 8.67205 6.01242 8.32561 6.28332 8.1691L9.14989 6.5142C9.42101 6.35769 9.76744 6.4506 9.92395 6.72149Z" fill="#0070BA"/>
<path d="M6.07602 6.72151C6.23252 6.4504 6.57896 6.35771 6.85007 6.51421L9.71664 8.16912C9.98776 8.32563 10.0804 8.67206 9.92394 8.94318C9.76744 9.21429 9.421 9.30698 9.14988 9.15048L6.28353 7.49557C6.01242 7.33906 5.91951 6.99263 6.07602 6.72151Z" fill="#0070BA"/>
</svg>
