<svg width="24" height="24" viewBox="0 0 24 24" fill="none" xmlns="http://www.w3.org/2000/svg">
<path d="M14 9V7.5C14 7.10218 13.8276 6.72064 13.5207 6.43934C13.2138 6.15804 12.7976 6 12.3636 6H6.63636C6.20237 6 5.78616 6.15804 5.47928 6.43934C5.1724 6.72064 5 7.10218 5 7.5V16.5C5 16.8978 5.1724 17.2794 5.47928 17.5607C5.78616 17.842 6.20237 18 6.63636 18H12.3636C12.7976 18 13.2138 17.842 13.5207 17.5607C13.8276 17.2794 14 16.8978 14 16.5V15" stroke="#888888" stroke-width="1.5" stroke-linecap="round" stroke-linejoin="round"/>
<path d="M10.5 12H19M19 12L16.6429 10M19 12L16.6429 14" stroke="#888888" stroke-width="1.5" stroke-linecap="round" stroke-linejoin="round"/>
</svg>
