<svg width="16" height="16" viewBox="0 0 16 16" fill="none" xmlns="http://www.w3.org/2000/svg">
<path d="M2.66788 2.29062C6.1691 2.2597 9.67179 2.29553 13.173 2.27271C13.2824 2.51551 13.3885 3.04675 12.9853 3.04025C9.55918 3.04834 6.13307 3.03866 2.70551 3.04516C2.61895 2.80063 2.62214 2.54324 2.66788 2.29062Z" fill="#0085DD"/>
<path d="M3.04547 4.18539C6.35059 4.18207 9.65743 4.17889 12.9643 4.18698C11.7003 5.66343 10.4266 7.13178 9.15779 8.6016C9.15447 10.3437 9.16271 12.0857 9.15287 13.8261C8.39676 13.4676 7.69303 13.0097 6.95819 12.6088C6.95487 11.2366 6.9663 9.86284 6.95327 8.49068C5.64354 7.06173 4.34537 5.6227 3.04547 4.18539Z" fill="#0085DD"/>
</svg>
