<svg width="25" height="25" viewBox="0 0 25 25" fill="none" xmlns="http://www.w3.org/2000/svg">
<path d="M5.5 8.39878C6.00972 7.28923 6.75 6.30103 7.67156 5.5M10.9444 7.05556C10.9444 6.643 11.1083 6.24733 11.4001 5.95561C11.6918 5.66389 12.0874 5.5 12.5 5.5C12.9126 5.5 13.3082 5.66389 13.5999 5.95561C13.8917 6.24733 14.0556 6.643 14.0556 7.05556C14.9488 7.47791 15.7102 8.13537 16.2583 8.95746C16.8063 9.77955 17.1203 10.7353 17.1667 11.7222V14.0556C17.2252 14.5391 17.3964 15.0022 17.6666 15.4074C17.9368 15.8127 18.2984 16.1489 18.7222 16.3889H6.27778C6.70162 16.1489 7.06319 15.8127 7.33337 15.4074C7.60355 15.0022 7.7748 14.5391 7.83333 14.0556V11.7222C7.87966 10.7353 8.19368 9.77955 8.74174 8.95746C9.2898 8.13537 10.0512 7.47791 10.9444 7.05556ZM10.1667 16.3889V17.1667C10.1667 17.7855 10.4125 18.379 10.8501 18.8166C11.2877 19.2542 11.8812 19.5 12.5 19.5C13.1188 19.5 13.7123 19.2542 14.1499 18.8166C14.5875 18.379 14.8333 17.7855 14.8333 17.1667V16.3889H10.1667ZM19.5 8.39878C18.9898 7.28909 18.249 6.30087 17.3269 5.5L19.5 8.39878Z" stroke="white" stroke-width="1.5" stroke-linecap="round" stroke-linejoin="round"/>
</svg>
