<svg width="144" height="144" viewBox="0 0 144 144" fill="none" xmlns="http://www.w3.org/2000/svg">
<path d="M122.483 130.909H21.5172C12.4354 130.909 5.07373 123.623 5.07373 114.634C5.07373 105.645 12.4354 98.3589 21.5172 98.3589H122.484C131.565 98.3589 138.927 105.645 138.927 114.634C138.926 123.623 131.565 130.909 122.483 130.909Z" fill="#EDEDED"/>
<path d="M124.836 86.6904H19.1636C8.57938 86.6904 0 78.1988 0 67.7229C0 57.2478 8.57938 48.7554 19.1636 48.7554H124.836C135.42 48.7554 144 57.2469 144 67.7229C144 78.1988 135.42 86.6904 124.836 86.6904Z" fill="#EDEDED"/>
<path d="M109.746 69.3139H34.2535C23.6701 69.3139 15.0898 60.8223 15.0898 50.3464C15.0898 39.8714 23.6692 31.3789 34.2535 31.3789H109.745C120.329 31.3789 128.909 39.8705 128.909 50.3464C128.909 60.8214 120.329 69.3139 109.746 69.3139Z" fill="#EDEDED"/>
<path d="M128.909 84.2344L108.226 86.4028L97.9756 87.4773H46.0231L35.6985 86.3948L15.0898 84.2344L33.9578 52.7772C34.3856 52.0639 34.9904 51.4902 35.6985 51.0997C36.3833 50.7208 37.1651 50.5127 37.9766 50.5127H106.023C106.806 50.5127 107.56 50.7066 108.226 51.0597C108.966 51.4511 109.598 52.039 110.041 52.7772L128.909 84.2344Z" fill="#2787C7"/>
<path d="M108.227 51.0597V94.0655H35.6987V51.0997C36.3835 50.7208 37.1653 50.5127 37.9768 50.5127H106.023C106.806 50.5127 107.56 50.7066 108.227 51.0597Z" fill="#0070BA"/>
<path d="M128.909 108.219L108.226 110.388L97.9756 111.462H46.0231L35.6985 110.38L15.0898 108.219L35.6985 74.4976H108.226L128.909 108.219Z" fill="#0070BA"/>
<path d="M128.909 84.2355V118.437C128.909 121.019 126.794 123.112 124.186 123.112H19.8141C17.2044 123.112 15.0908 121.019 15.0908 118.437V84.2355C15.0908 81.6534 17.2053 79.5605 19.8141 79.5605H42.0242C44.233 79.5605 46.024 81.3332 46.024 83.5195C46.024 85.7058 47.815 87.4784 50.0239 87.4784H93.9767C96.1856 87.4784 97.9766 85.7058 97.9766 83.5195C97.9766 81.3332 99.7676 79.5605 101.976 79.5605H124.186C126.794 79.5597 128.909 81.6534 128.909 84.2355Z" fill="#299AE4"/>
<path d="M133.862 73.6777C133.624 73.6777 133.4 73.5328 133.314 73.2988C133.282 73.2143 130.09 64.7486 122.803 56.1031C117.701 50.0513 109.736 42.9615 98.5377 39.3708C99.3312 40.1686 100.057 40.9798 100.712 41.7999C103.235 44.9583 104.614 48.123 104.702 50.9505C104.852 55.7918 101.221 58.9075 94.9908 59.2856C90.2288 59.5746 85.5163 58.6247 81.3628 56.5398C77.6604 54.6809 74.6391 52.0366 72.8553 49.0925C70.9475 45.9447 70.7039 42.7703 72.1867 40.3848C73.195 38.7624 74.924 37.5572 77.3252 36.8021C79.8962 35.9944 83.1933 35.7276 87.124 36.0096C89.4821 36.1786 91.7961 36.5032 94.0607 36.98C92.4952 35.7685 90.7734 34.6105 88.9231 33.5289C81.1435 28.9829 67.3951 23.5635 46.0792 23.5635C45.7566 23.5635 45.4951 23.3047 45.4951 22.9854C45.4951 22.6661 45.7566 22.4072 46.0792 22.4072C55.0801 22.4072 63.5552 23.3865 71.2701 25.3175C78.1187 27.0315 84.2573 29.4597 89.5171 32.5336C92.1717 34.0848 94.5711 35.7934 96.638 37.5946C101.001 38.7589 105.167 40.5075 109.095 42.829C114.448 45.9927 119.37 50.2194 123.724 55.3916C131.13 64.1882 134.377 72.8132 134.408 72.8995C134.52 73.1992 134.364 73.531 134.061 73.6413C133.997 73.6671 133.929 73.6777 133.862 73.6777ZM84.243 37.0591C78.6588 37.0591 74.7784 38.4235 73.1824 40.9905C71.918 43.0255 72.158 45.6912 73.8582 48.4974C76.9298 53.5664 84.8316 58.743 94.9198 58.1311C100.525 57.7913 103.664 55.187 103.534 50.9861C103.454 48.4085 102.162 45.4795 99.7958 42.5168C98.7462 41.2022 97.5007 39.9071 96.0871 38.6557C93.2645 37.913 90.2504 37.3944 87.0404 37.1641C86.0663 37.0938 85.1326 37.0591 84.243 37.0591Z" fill="#DADADA"/>
<path d="M31.0378 17.7679C31.1488 15.2519 30.0124 13.1593 28.4997 13.0939C26.987 13.0286 25.6707 15.0153 25.5598 17.5313C25.4488 20.0473 26.5852 22.1399 28.0979 22.2052C29.6106 22.2706 30.9269 20.2839 31.0378 17.7679Z" fill="#696969"/>
<path d="M28.6607 24.549C31.5155 24.549 33.8297 23.4535 33.8297 22.1021C33.8297 20.7508 31.5155 19.6553 28.6607 19.6553C25.8059 19.6553 23.4917 20.7508 23.4917 22.1021C23.4917 23.4535 25.8059 24.549 28.6607 24.549Z" fill="#9D9D9C"/>
<path d="M31.89 19.2105C33.3539 17.1506 33.5366 14.7817 32.2981 13.9195C31.0596 13.0573 28.8689 14.0282 27.405 16.0881C25.9411 18.148 25.7584 20.5168 26.9969 21.3791C28.2354 22.2413 30.4261 21.2704 31.89 19.2105Z" fill="#9D9D9C"/>
<path d="M25.1946 21.5406C25.4121 21.0611 25.1956 20.4979 24.7111 20.2826C24.2266 20.0674 23.6576 20.2816 23.4401 20.7611C23.2227 21.2407 23.4391 21.8039 23.9236 22.0191C24.4081 22.2344 24.9771 22.0201 25.1946 21.5406Z" fill="#696969"/>
<path d="M32.5043 24.9311C32.498 24.9311 32.4926 24.9311 32.4863 24.9302C30.822 24.8368 29.2063 24.4508 27.683 23.7819C27.524 23.7125 27.453 23.5284 27.5231 23.371C27.5932 23.2135 27.7792 23.1424 27.9383 23.2126C29.3914 23.8513 30.9335 24.2195 32.5214 24.3084C32.6948 24.3182 32.8278 24.465 32.8179 24.6367C32.808 24.803 32.6696 24.9311 32.5043 24.9311Z" fill="#9D9D9C"/>
<path d="M30.7834 26.5251C30.7529 26.5251 30.7223 26.5207 30.6917 26.5118C29.1667 26.051 27.7442 25.2381 26.5768 24.1627C26.4492 24.0453 26.4429 23.8488 26.5607 23.7225C26.6793 23.5971 26.8779 23.5899 27.0055 23.7065C28.1027 24.7178 29.4408 25.4818 30.8751 25.9159C31.0413 25.9657 31.1348 26.14 31.0836 26.3045C31.0431 26.4388 30.9182 26.5251 30.7834 26.5251Z" fill="#9D9D9C"/>
<path d="M57.4558 19.6482C57.4468 19.6482 57.4387 19.6482 57.4297 19.6473C46.8877 18.7943 38.7684 19.3822 38.6876 19.3885C38.5132 19.4009 38.3631 19.2728 38.3506 19.1012C38.3371 18.9295 38.4674 18.7801 38.6408 18.7676C38.7217 18.7614 46.8868 18.169 57.481 19.0265C57.6544 19.0407 57.7829 19.191 57.7685 19.3618C57.755 19.5254 57.6175 19.6482 57.4558 19.6482Z" fill="#DADADA"/>
</svg>
