<svg width="16" height="16" viewBox="0 0 16 16" fill="none" xmlns="http://www.w3.org/2000/svg">
<path d="M8.00014 10.054C7.68713 10.054 7.43359 9.80021 7.43359 9.48742V6.17738C7.43338 5.86459 7.68713 5.61084 8.00014 5.61084C8.31314 5.61084 8.56668 5.86459 8.56668 6.17738V9.4872C8.56668 9.80021 8.31293 10.054 8.00014 10.054Z" fill="#FF5876"/>
<path d="M9.92395 6.7218C10.0805 6.99291 9.98755 7.33935 9.71665 7.49585L6.85008 9.15076C6.57897 9.30727 6.23253 9.21436 6.07602 8.94347C5.91952 8.67235 6.01242 8.32591 6.28332 8.16941L9.14989 6.5145C9.42101 6.358 9.76744 6.4509 9.92395 6.7218Z" fill="#FF5876"/>
<path d="M6.07602 6.72136C6.23252 6.45024 6.57896 6.35756 6.85007 6.51406L9.71664 8.16897C9.98776 8.32547 10.0804 8.67191 9.92394 8.94302C9.76744 9.21414 9.421 9.30683 9.14988 9.15032L6.28353 7.49541C6.01242 7.33891 5.91951 6.99247 6.07602 6.72136Z" fill="#FF5876"/>
</svg>
