<svg width="32" height="32" viewBox="0 0 32 32" fill="none" xmlns="http://www.w3.org/2000/svg">
<path d="M14.2344 6.66675C15.6451 6.66669 17.0277 7.0609 18.2263 7.8049C19.4248 8.54889 20.3915 9.61306 21.0174 10.8773C21.6432 12.1415 21.9033 13.5555 21.7681 14.9597C21.633 16.3639 21.1081 17.7023 20.2527 18.824L25.0388 23.612C25.2198 23.7936 25.3249 24.0373 25.3327 24.2935C25.3405 24.5498 25.2505 24.7994 25.081 24.9917C24.9114 25.184 24.675 25.3046 24.4198 25.3289C24.1645 25.3532 23.9096 25.2794 23.7068 25.1226L23.6119 25.0389L18.8238 20.2528C17.8681 20.9815 16.7527 21.4721 15.5699 21.6841C14.387 21.8961 13.1706 21.8233 12.0214 21.4719C10.8722 21.1205 9.82323 20.5004 8.96126 19.6631C8.09929 18.8258 7.44911 17.7952 7.06453 16.6567C6.67994 15.5182 6.57201 14.3045 6.74965 13.116C6.9273 11.9275 7.38542 10.7984 8.08611 9.82213C8.78679 8.84584 9.7099 8.05044 10.779 7.50174C11.8482 6.95304 13.0326 6.66681 14.2344 6.66675ZM14.2344 8.68489C12.7624 8.68489 11.3507 9.2696 10.3099 10.3104C9.26905 11.3512 8.68431 12.7628 8.68431 14.2348C8.68431 15.7067 9.26905 17.1183 10.3099 18.1591C11.3507 19.1999 12.7624 19.7846 14.2344 19.7846C15.7063 19.7846 17.118 19.1999 18.1589 18.1591C19.1997 17.1183 19.7844 15.7067 19.7844 14.2348C19.7844 12.7628 19.1997 11.3512 18.1589 10.3104C17.118 9.2696 15.7063 8.68489 14.2344 8.68489Z" fill="#888888"/>
</svg>
