<svg width="16" height="16" viewBox="0 0 16 16" fill="none" xmlns="http://www.w3.org/2000/svg">
<rect x="0.5" y="0.5" width="15" height="15" rx="7.5" fill="white"/>
<path d="M7.2627 9.90039C7.26595 9.49023 7.30664 9.1582 7.38477 8.9043C7.46615 8.64714 7.57845 8.44206 7.72168 8.28906C7.86491 8.13281 8.05697 7.97982 8.29785 7.83008C8.77962 7.53711 9.02051 7.16276 9.02051 6.70703C9.02051 6.50846 8.97331 6.33431 8.87891 6.18457C8.78776 6.03158 8.66081 5.91439 8.49805 5.83301C8.33854 5.75163 8.16113 5.71094 7.96582 5.71094C7.78353 5.71094 7.61263 5.75 7.45312 5.82812C7.29362 5.90299 7.16178 6.01855 7.05762 6.1748C6.95345 6.33105 6.89486 6.52474 6.88184 6.75586H5.82715C5.84017 6.35221 5.94108 6.00553 6.12988 5.71582C6.32194 5.42611 6.57747 5.20638 6.89648 5.05664C7.21549 4.9069 7.57194 4.83203 7.96582 4.83203C8.38249 4.83203 8.75033 4.91178 9.06934 5.07129C9.3916 5.22754 9.64062 5.44727 9.81641 5.73047C9.99544 6.01367 10.085 6.33919 10.085 6.70703C10.085 7.08464 10.0003 7.41178 9.83105 7.68848C9.66178 7.96191 9.41439 8.19792 9.08887 8.39648C8.88704 8.52018 8.72754 8.64714 8.61035 8.77734C8.49316 8.9043 8.40527 9.05729 8.34668 9.23633C8.29134 9.41536 8.26204 9.63672 8.25879 9.90039V9.95898H7.2627V9.90039ZM7.10645 11.3848C7.10645 11.2578 7.13737 11.1406 7.19922 11.0332C7.26107 10.9258 7.34408 10.8411 7.44824 10.7793C7.55566 10.7142 7.67285 10.6816 7.7998 10.6816C7.9235 10.6816 8.03743 10.7126 8.1416 10.7744C8.24902 10.8363 8.33366 10.9209 8.39551 11.0283C8.46061 11.1357 8.49316 11.2513 8.49316 11.375C8.49316 11.4987 8.46061 11.6143 8.39551 11.7217C8.33366 11.8258 8.24902 11.9105 8.1416 11.9756C8.03743 12.0374 7.9235 12.0684 7.7998 12.0684C7.67611 12.0684 7.56055 12.0374 7.45312 11.9756C7.34896 11.9137 7.26432 11.8307 7.19922 11.7266C7.13737 11.6224 7.10645 11.5085 7.10645 11.3848Z" fill="black"/>
<rect x="0.5" y="0.5" width="15" height="15" rx="7.5" stroke="#D9D9D9"/>
</svg>
