<svg width="168" height="42" viewBox="0 0 168 42" fill="none" xmlns="http://www.w3.org/2000/svg">
<path d="M62.3516 5.24609C62.2305 4.84375 62.0137 4.5293 61.7012 4.30273C61.3887 4.07617 61.0039 3.96094 60.5469 3.95703C60.1094 3.96094 59.7246 4.07227 59.3926 4.29102C59.0605 4.50977 58.8027 4.82812 58.6191 5.24609C58.4355 5.66406 58.3438 6.16406 58.3438 6.74609C58.3438 7.33594 58.4336 7.8418 58.6133 8.26367C58.793 8.68555 59.0488 9.00586 59.3809 9.22461C59.7129 9.44336 60.1055 9.55469 60.5586 9.55859C60.957 9.55859 61.3008 9.48633 61.5898 9.3418C61.8828 9.19727 62.1074 8.99414 62.2637 8.73242C62.4238 8.4668 62.5078 8.15625 62.5156 7.80078H60.6758V6.47656H64.2148V7.53125C64.2148 8.26172 64.0586 8.89844 63.7461 9.44141C63.4375 9.98047 63.0039 10.3945 62.4453 10.6836C61.8906 10.9727 61.2578 11.1172 60.5469 11.1172C59.7578 11.1172 59.0605 10.9414 58.4551 10.5898C57.8535 10.2344 57.3848 9.73047 57.0488 9.07812C56.7168 8.42188 56.5508 7.65234 56.5508 6.76953C56.5508 5.875 56.7227 5.09766 57.0664 4.4375C57.4102 3.77734 57.8828 3.27344 58.4844 2.92578C59.0859 2.57422 59.7617 2.39844 60.5117 2.39844C61.1406 2.39844 61.7168 2.51953 62.2402 2.76172C62.7637 3.00391 63.1895 3.3418 63.5176 3.77539C63.8496 4.20508 64.0547 4.69531 64.1328 5.24609H62.3516ZM70.1094 4.94141C70.0742 4.60547 69.9277 4.34375 69.6699 4.15625C69.416 3.96875 69.0742 3.875 68.6445 3.875C68.3516 3.875 68.0996 3.91797 67.8887 4.00391C67.6816 4.08594 67.5234 4.20117 67.4141 4.34961C67.3047 4.49805 67.25 4.66602 67.25 4.85352C67.25 5.13477 67.3711 5.35742 67.6133 5.52148C67.8594 5.68164 68.1914 5.80859 68.6094 5.90234L69.3711 6.08984C70.1562 6.26953 70.7754 6.5625 71.2285 6.96875C71.6816 7.37109 71.9102 7.90625 71.9141 8.57422C71.9141 9.08984 71.7832 9.53906 71.5215 9.92188C71.2598 10.3047 70.8828 10.5996 70.3906 10.8066C69.8984 11.0137 69.3125 11.1172 68.6328 11.1172C67.9453 11.1211 67.3496 11.0176 66.8457 10.8066C66.3418 10.5957 65.9492 10.2832 65.668 9.86914C65.3867 9.45508 65.2383 8.94922 65.2227 8.35156H66.9336C66.9609 8.76953 67.125 9.08984 67.4258 9.3125C67.7305 9.53125 68.125 9.64062 68.6094 9.64062C68.9141 9.64062 69.1816 9.5957 69.4121 9.50586C69.6426 9.41602 69.8203 9.29102 69.9453 9.13086C70.0703 8.9707 70.1328 8.78516 70.1328 8.57422C70.1328 8.30078 70.0137 8.08398 69.7754 7.92383C69.541 7.75977 69.1758 7.61719 68.6797 7.49609L67.7539 7.27344C66.2148 6.89453 65.4453 6.125 65.4453 4.96484C65.4453 4.46094 65.582 4.01562 65.8555 3.62891C66.1328 3.23828 66.5137 2.93555 66.998 2.7207C67.4863 2.50586 68.0391 2.39844 68.6562 2.39844C69.2734 2.39844 69.8184 2.50586 70.291 2.7207C70.7637 2.93555 71.1309 3.23633 71.3926 3.62305C71.6543 4.00586 71.7891 4.44531 71.7969 4.94141H70.1094ZM81.6055 12.1016H80.1172V1.41406H81.6055V12.1016ZM73.2266 2.30469H78.3008V6.41797H74.7852V8.375C75.6445 8.36719 76.4336 8.33789 77.1523 8.28711C77.8711 8.23633 78.6055 8.14844 79.3555 8.02344L79.4844 9.23047C78.6641 9.375 77.8457 9.47461 77.0293 9.5293C76.2129 9.58008 75.2695 9.60547 74.1992 9.60547H73.2383V5.23438H76.7773V3.51172H73.2266V2.30469ZM87.3477 3.76953H84.7812V5.46875H86.9258V6.60547H84.7812V8.52148C85.3711 8.51367 85.8926 8.49219 86.3457 8.45703C86.8027 8.41797 87.2734 8.35938 87.7578 8.28125L87.8867 9.48828C87.3242 9.58984 86.7773 9.6543 86.2461 9.68164C85.7148 9.70898 84.9922 9.72266 84.0781 9.72266H83.3633V2.59766H87.3477V3.76953ZM87.4297 5.30469H88.625V1.60156H90.0195V11.5977H88.625V6.5H87.4297V5.30469ZM90.8398 1.41406H92.2812V12.0781H90.8398V1.41406ZM96.4414 1.73047C96.9766 1.73047 97.4609 1.83398 97.8945 2.04102C98.3281 2.24805 98.668 2.53711 98.9141 2.9082C99.1641 3.2793 99.2891 3.69922 99.2891 4.16797C99.2891 4.63281 99.1641 5.04883 98.9141 5.41602C98.668 5.7832 98.3281 6.07227 97.8945 6.2832C97.4609 6.49023 96.9766 6.59375 96.4414 6.59375C95.8984 6.59375 95.4082 6.49023 94.9707 6.2832C94.5332 6.07227 94.1895 5.7832 93.9395 5.41602C93.6934 5.04883 93.5703 4.63281 93.5703 4.16797C93.5703 3.69922 93.6934 3.2793 93.9395 2.9082C94.1895 2.53711 94.5332 2.24805 94.9707 2.04102C95.4082 1.83398 95.8984 1.73047 96.4414 1.73047ZM95.0234 4.16797C95.0195 4.41797 95.0781 4.63477 95.1992 4.81836C95.3203 4.99805 95.4883 5.13672 95.7031 5.23438C95.918 5.33203 96.1641 5.38281 96.4414 5.38672C96.7109 5.38281 96.9512 5.33203 97.1621 5.23438C97.377 5.13672 97.5449 4.99805 97.666 4.81836C97.7871 4.63477 97.8477 4.41797 97.8477 4.16797C97.8477 3.91797 97.7871 3.70117 97.666 3.51758C97.5449 3.33398 97.377 3.19336 97.1621 3.0957C96.9512 2.99805 96.7109 2.94922 96.4414 2.94922C96.168 2.94922 95.9219 2.99805 95.7031 3.0957C95.4883 3.19336 95.3203 3.33398 95.1992 3.51758C95.0781 3.70117 95.0195 3.91797 95.0234 4.16797ZM95.1758 7.20312H102.336V10.0977H96.6641V10.7891H102.629V11.9609H95.1992V9.00781H100.848V8.35156H95.1758V7.20312ZM100.836 1.41406H102.336V6.75781H100.836V1.41406ZM56.4688 37L62.3516 20.0312H66.875L72.7344 37H68.9609L67.6836 33.0859H61.543L60.2656 37H56.4688ZM66.793 30.3438L64.6719 23.8516H64.5547L62.4336 30.3438H66.793ZM73.9363 37V20.0312H79.9831C81.6784 20.0312 83.1433 20.3711 84.3777 21.0508C85.6198 21.7227 86.5691 22.6953 87.2253 23.9688C87.8816 25.2344 88.2097 26.7422 88.2097 28.4922C88.2097 30.25 87.8777 31.7695 87.2136 33.0508C86.5573 34.3242 85.6042 35.3008 84.3542 35.9805C83.112 36.6602 81.6316 37 79.9128 37H73.9363ZM79.7722 33.9766C81.4128 33.9766 82.6433 33.5312 83.4636 32.6406C84.2839 31.75 84.6941 30.3672 84.6941 28.4922C84.6941 26.6328 84.2839 25.2617 83.4636 24.3789C82.6511 23.4961 81.4284 23.0547 79.7956 23.0547H77.4519V33.9766H79.7722ZM106.199 25.9375C106.059 25.0078 105.656 24.2734 104.992 23.7344C104.328 23.1953 103.496 22.9219 102.496 22.9141C101.613 22.9219 100.84 23.1445 100.176 23.582C99.5197 24.0195 99.0119 24.6602 98.6525 25.5039C98.2931 26.3398 98.1134 27.3438 98.1134 28.5156C98.1134 29.7109 98.2931 30.7266 98.6525 31.5625C99.0197 32.3984 99.5275 33.0312 100.176 33.4609C100.832 33.8906 101.598 34.1094 102.473 34.1172C103.449 34.1094 104.274 33.8516 104.945 33.3438C105.617 32.8281 106.035 32.1172 106.199 31.2109L109.762 31.2344C109.629 32.3047 109.25 33.2969 108.625 34.2109C108 35.125 107.156 35.8594 106.094 36.4141C105.031 36.9609 103.809 37.2344 102.426 37.2344C100.903 37.2344 99.5431 36.8906 98.3478 36.2031C97.1603 35.5078 96.2267 34.5039 95.547 33.1914C94.8673 31.8711 94.5275 30.3125 94.5275 28.5156C94.5275 26.7109 94.8673 25.1523 95.547 23.8398C96.2345 22.5273 97.1759 21.5273 98.3713 20.8398C99.5666 20.1445 100.918 19.7969 102.426 19.7969C103.731 19.7969 104.91 20.0391 105.965 20.5234C107.02 21.0078 107.875 21.7109 108.531 22.6328C109.195 23.5547 109.606 24.6562 109.762 25.9375H106.199ZM117.198 37.2578C115.909 37.2578 114.792 36.9922 113.847 36.4609C112.901 35.9219 112.175 35.1602 111.667 34.1758C111.167 33.1914 110.917 32.0312 110.917 30.6953C110.917 29.3984 111.167 28.2539 111.667 27.2617C112.175 26.2617 112.893 25.4883 113.823 24.9414C114.753 24.3867 115.831 24.1094 117.057 24.1094C118.198 24.1094 119.218 24.3516 120.116 24.8359C121.022 25.3125 121.733 26.0352 122.249 27.0039C122.772 27.9727 123.034 29.1562 123.034 30.5547V31.5391H114.339C114.339 32.1719 114.456 32.7227 114.69 33.1914C114.932 33.6602 115.272 34.0234 115.71 34.2812C116.155 34.5312 116.675 34.6562 117.268 34.6562C117.847 34.6484 118.343 34.5312 118.757 34.3047C119.171 34.0703 119.464 33.7578 119.636 33.3672H122.94C122.776 34.1562 122.44 34.8438 121.932 35.4297C121.425 36.0078 120.765 36.457 119.952 36.7773C119.147 37.0977 118.229 37.2578 117.198 37.2578ZM119.753 29.3594C119.753 28.8516 119.64 28.3945 119.413 27.9883C119.194 27.582 118.886 27.2695 118.487 27.0508C118.089 26.8242 117.636 26.7109 117.128 26.7109C116.612 26.7109 116.143 26.8281 115.722 27.0625C115.307 27.2969 114.979 27.6172 114.737 28.0234C114.495 28.4297 114.362 28.875 114.339 29.3594H119.753ZM127.963 37H124.494V24.2734H127.798V26.5H127.939C128.228 25.7578 128.705 25.1758 129.369 24.7539C130.033 24.3242 130.83 24.1094 131.759 24.1094C132.642 24.1094 133.412 24.3047 134.068 24.6953C134.732 25.0781 135.244 25.6289 135.603 26.3477C135.963 27.0664 136.142 27.9141 136.142 28.8906V37H132.697V29.5C132.689 28.7109 132.482 28.0977 132.076 27.6602C131.677 27.2148 131.119 26.9922 130.4 26.9922C129.666 26.9922 129.076 27.2266 128.63 27.6953C128.185 28.1641 127.963 28.8125 127.963 29.6406V37ZM144.821 26.875H142.43V33.0859C142.422 33.5625 142.52 33.8945 142.723 34.082C142.934 34.2617 143.235 34.3594 143.625 34.375C143.985 34.375 144.446 34.3516 145.008 34.3047V37.0469C144.493 37.125 143.864 37.1641 143.121 37.1641C141.825 37.1641 140.805 36.8672 140.063 36.2734C139.321 35.6719 138.953 34.7734 138.961 33.5781V26.875H137.203V24.2734H138.961V21.2266H142.43V24.2734H144.821V26.875ZM151.905 37.2578C150.616 37.2578 149.499 36.9922 148.554 36.4609C147.608 35.9219 146.882 35.1602 146.374 34.1758C145.874 33.1914 145.624 32.0312 145.624 30.6953C145.624 29.3984 145.874 28.2539 146.374 27.2617C146.882 26.2617 147.601 25.4883 148.53 24.9414C149.46 24.3867 150.538 24.1094 151.765 24.1094C152.905 24.1094 153.925 24.3516 154.823 24.8359C155.73 25.3125 156.44 26.0352 156.956 27.0039C157.48 27.9727 157.741 29.1562 157.741 30.5547V31.5391H149.046C149.046 32.1719 149.163 32.7227 149.397 33.1914C149.64 33.6602 149.98 34.0234 150.417 34.2812C150.862 34.5312 151.382 34.6562 151.976 34.6562C152.554 34.6484 153.05 34.5312 153.464 34.3047C153.878 34.0703 154.171 33.7578 154.343 33.3672H157.647C157.483 34.1562 157.147 34.8438 156.64 35.4297C156.132 36.0078 155.472 36.457 154.659 36.7773C153.855 37.0977 152.937 37.2578 151.905 37.2578ZM154.46 29.3594C154.46 28.8516 154.347 28.3945 154.12 27.9883C153.901 27.582 153.593 27.2695 153.194 27.0508C152.796 26.8242 152.343 26.7109 151.835 26.7109C151.319 26.7109 150.851 26.8281 150.429 27.0625C150.015 27.2969 149.687 27.6172 149.444 28.0234C149.202 28.4297 149.069 28.875 149.046 29.3594H154.46ZM159.201 24.2734H162.552V26.4766H162.693C162.92 25.7109 163.306 25.1211 163.853 24.707C164.4 24.293 165.037 24.0859 165.763 24.0859C166.162 24.0859 166.529 24.125 166.865 24.2031V27.2969C166.701 27.2422 166.474 27.1992 166.185 27.168C165.896 27.1289 165.631 27.1094 165.388 27.1094C164.873 27.1094 164.404 27.2227 163.982 27.4492C163.568 27.6758 163.244 27.9922 163.01 28.3984C162.783 28.7969 162.67 29.25 162.67 29.7578V37H159.201V24.2734Z" fill="#0070BA"/>
<rect y="2" width="40" height="40" rx="12" fill="#0070BA"/>
<path d="M9.72526 28.2486H11.1696V29.0536H11.2169C11.2932 28.7669 11.4142 28.5525 11.58 28.4104C11.7483 28.2657 11.9496 28.1934 12.1837 28.1934C12.31 28.1934 12.4429 28.2091 12.5823 28.2407V29.5272C12.5139 29.5035 12.4245 29.4851 12.314 29.4719C12.2061 29.4561 12.1088 29.4483 12.022 29.4483C11.8667 29.4483 11.7273 29.4838 11.6037 29.5548C11.4826 29.6232 11.3879 29.7205 11.3195 29.8468C11.2511 29.9705 11.2169 30.1138 11.2169 30.277V32.5342H9.72526V28.2486ZM14.9974 32.6131C14.5449 32.6131 14.1529 32.525 13.8214 32.3487C13.4926 32.1724 13.2387 31.9186 13.0598 31.5871C12.8835 31.2556 12.7954 30.861 12.7954 30.4032C12.7954 29.9639 12.8849 29.5772 13.0637 29.243C13.2426 28.9089 13.4952 28.6511 13.8214 28.4696C14.1476 28.2854 14.5291 28.1934 14.9658 28.1934C15.3894 28.1934 15.7603 28.2815 16.0786 28.4578C16.397 28.6314 16.643 28.8839 16.8166 29.2154C16.9928 29.5443 17.081 29.9349 17.081 30.3874V30.7426H14.2713V30.7979C14.2713 31.0241 14.3384 31.2069 14.4725 31.3464C14.6093 31.4858 14.7948 31.5555 15.029 31.5555C15.1947 31.5555 15.3368 31.5226 15.4551 31.4569C15.5762 31.3885 15.6603 31.2924 15.7077 31.1688H17.0731C17.0257 31.4634 16.9113 31.7199 16.7298 31.9383C16.5509 32.154 16.3141 32.3211 16.0195 32.4395C15.7248 32.5552 15.3841 32.6131 14.9974 32.6131ZM15.6998 29.906C15.6998 29.7797 15.6682 29.6679 15.6051 29.5706C15.5446 29.4706 15.4617 29.393 15.3565 29.3378C15.2513 29.2799 15.1342 29.2509 15.0053 29.2509C14.8711 29.2509 14.7488 29.2786 14.6383 29.3338C14.5278 29.3891 14.4397 29.4667 14.3739 29.5666C14.3081 29.664 14.2739 29.7771 14.2713 29.906H15.6998ZM20.2379 29.3299H19.4882V31.1609C19.4882 31.2661 19.5158 31.3411 19.571 31.3858C19.6289 31.4306 19.7197 31.4529 19.8433 31.4529C19.9486 31.4529 20.0985 31.445 20.2932 31.4292V32.5421C20.1274 32.5763 19.8907 32.5947 19.5829 32.5973C19.0541 32.5947 18.6555 32.4895 18.3872 32.2816C18.1215 32.0738 17.9912 31.7502 17.9965 31.3109V29.3299H17.444V28.2486H17.9965V27.2226H19.4882V28.2486H20.2379V29.3299ZM20.672 31.3503C20.672 30.9057 20.8154 30.5742 21.1022 30.3559C21.3915 30.1375 21.7743 30.0139 22.2505 29.9849L22.9332 29.9573L23.2528 29.9455V29.5982C23.2502 29.4825 23.2042 29.3917 23.1147 29.3259C23.0279 29.2601 22.9108 29.2273 22.7635 29.2273C22.6083 29.2273 22.4833 29.2615 22.3886 29.3299C22.2939 29.3956 22.2373 29.4956 22.2189 29.6298H20.8378C20.8562 29.3614 20.9404 29.1194 21.0903 28.9037C21.2429 28.6853 21.4626 28.513 21.7493 28.3867C22.0361 28.2578 22.382 28.1934 22.7872 28.1934C23.1765 28.1934 23.5185 28.2539 23.8132 28.3749C24.1105 28.4933 24.3394 28.6603 24.4998 28.8761C24.6629 29.0891 24.7445 29.3325 24.7445 29.6061V32.5342H23.3475V31.9344H23.316C23.1897 32.1632 23.0226 32.3316 22.8148 32.4395C22.6096 32.5473 22.361 32.6026 22.069 32.6052C21.6428 32.6026 21.3034 32.496 21.0509 32.2856C20.7983 32.0751 20.672 31.7634 20.672 31.3503ZM22.0769 31.2635C22.0795 31.3898 22.1242 31.4858 22.211 31.5516C22.2979 31.6173 22.4136 31.6502 22.5583 31.6502C22.6846 31.6502 22.8017 31.6239 22.9095 31.5713C23.0174 31.5187 23.1029 31.445 23.166 31.3503C23.2292 31.253 23.2607 31.1399 23.2607 31.0109V30.7821C22.9477 30.79 22.7004 30.8031 22.5188 30.8215C22.3847 30.8399 22.2781 30.8899 22.1992 30.9715C22.1203 31.0504 22.0795 31.1477 22.0769 31.2635ZM25.5022 28.2486H26.9938V32.5342H25.5022V28.2486ZM26.2441 27.783C26.1099 27.783 25.9849 27.7527 25.8692 27.6922C25.756 27.6317 25.6666 27.5488 25.6008 27.4436C25.5351 27.3383 25.5022 27.2226 25.5022 27.0963C25.5022 26.9727 25.5351 26.8582 25.6008 26.753C25.6666 26.6478 25.756 26.5649 25.8692 26.5044C25.9849 26.4412 26.1099 26.4097 26.2441 26.4097C26.3782 26.4097 26.5019 26.4412 26.615 26.5044C26.7281 26.5649 26.8176 26.6478 26.8833 26.753C26.9517 26.8582 26.9859 26.9727 26.9859 27.0963C26.9859 27.2226 26.9517 27.3383 26.8833 27.4436C26.8176 27.5488 26.7281 27.6317 26.615 27.6922C26.5019 27.7527 26.3782 27.783 26.2441 27.783ZM29.2826 32.5342H27.791V26.8201H29.2826V32.5342Z" fill="white"/>
<path d="M17.0455 15.2497C16.8824 14.7077 16.5903 14.2842 16.1694 13.979C15.7485 13.6738 15.2302 13.5186 14.6146 13.5133C14.0253 13.5186 13.507 13.6686 13.0598 13.9632C12.6126 14.2579 12.2653 14.6867 12.018 15.2497C11.7707 15.8127 11.6471 16.4861 11.6471 17.2701C11.6471 18.0646 11.7681 18.746 12.0101 19.3142C12.2521 19.8825 12.5968 20.314 13.044 20.6086C13.4913 20.9033 14.02 21.0532 14.6304 21.0585C15.1671 21.0585 15.6301 20.9611 16.0195 20.7665C16.4141 20.5718 16.7166 20.2982 16.9271 19.9456C17.1428 19.5879 17.2559 19.1696 17.2665 18.6907H14.7882V16.9071H19.5552V18.3277C19.5552 19.3116 19.3448 20.1693 18.9239 20.9006C18.5082 21.6267 17.9242 22.1845 17.1717 22.5738C16.4246 22.9632 15.5722 23.1578 14.6146 23.1578C13.5518 23.1578 12.6126 22.9211 11.797 22.4475C10.9867 21.9687 10.3553 21.29 9.90284 20.4113C9.45561 19.5273 9.23199 18.4908 9.23199 17.3017C9.23199 16.0968 9.4635 15.0497 9.92652 14.1605C10.3895 13.2713 11.0262 12.5926 11.8365 12.1243C12.6468 11.6507 13.557 11.414 14.5672 11.414C15.4144 11.414 16.1905 11.5771 16.8955 11.9033C17.6006 12.2295 18.1741 12.6846 18.6161 13.2687C19.0633 13.8474 19.3395 14.5078 19.4448 15.2497H17.0455ZM27.495 14.8393C27.4476 14.3868 27.2503 14.0342 26.9031 13.7817C26.5611 13.5291 26.1007 13.4028 25.5219 13.4028C25.1273 13.4028 24.7879 13.4607 24.5038 13.5765C24.2249 13.687 24.0118 13.8422 23.8645 14.0421C23.7172 14.2421 23.6435 14.4683 23.6435 14.7209C23.6435 15.0997 23.8066 15.3996 24.1328 15.6206C24.4643 15.8363 24.9116 16.0073 25.4745 16.1336L26.5006 16.3862C27.5581 16.6282 28.3921 17.0228 29.0024 17.57C29.6128 18.112 29.9206 18.8328 29.9259 19.7325C29.9259 20.4271 29.7496 21.0322 29.3971 21.5478C29.0445 22.0634 28.5368 22.4607 27.8738 22.7396C27.2109 23.0184 26.4216 23.1578 25.5061 23.1578C24.5801 23.1631 23.7777 23.0237 23.0989 22.7396C22.4202 22.4554 21.8914 22.0345 21.5126 21.4768C21.1337 20.919 20.9338 20.2377 20.9127 19.4326H23.2173C23.2542 19.9956 23.4751 20.4271 23.8803 20.727C24.2907 21.0216 24.8221 21.169 25.4745 21.169C25.885 21.169 26.2454 21.1085 26.5558 20.9874C26.8662 20.8664 27.1056 20.698 27.274 20.4823C27.4424 20.2666 27.5266 20.0167 27.5266 19.7325C27.5266 19.3642 27.3661 19.0722 27.0451 18.8565C26.7294 18.6355 26.2375 18.4435 25.5693 18.2803L24.3223 17.9804C22.2492 17.4701 21.2127 16.4335 21.2127 14.8708C21.2127 14.1921 21.3968 13.5923 21.7651 13.0714C22.1387 12.5452 22.6517 12.1374 23.3041 11.848C23.9618 11.5587 24.7064 11.414 25.5377 11.414C26.369 11.414 27.103 11.5587 27.7397 11.848C28.3763 12.1374 28.8709 12.5426 29.2234 13.0635C29.576 13.5791 29.7575 14.171 29.768 14.8393H27.495Z" fill="white"/>
</svg>
