<svg width="32" height="32" viewBox="0 0 32 32" fill="none" xmlns="http://www.w3.org/2000/svg">
<rect width="32" height="32" rx="8" fill="#0070BA"/>
<path d="M7.53369 21.2881H8.78467V21.9854H8.82568C8.89176 21.737 8.99658 21.5513 9.14014 21.4282C9.28597 21.3029 9.46029 21.2402 9.66309 21.2402C9.77246 21.2402 9.88753 21.2539 10.0083 21.2812V22.3955C9.94906 22.375 9.87158 22.359 9.77588 22.3477C9.68245 22.334 9.59814 22.3271 9.52295 22.3271C9.38851 22.3271 9.26774 22.3579 9.16064 22.4194C9.05583 22.4787 8.9738 22.563 8.91455 22.6724C8.85531 22.7795 8.82568 22.9036 8.82568 23.0449V25H7.53369V21.2881ZM12.1001 25.0684C11.7082 25.0684 11.3687 24.992 11.0815 24.8394C10.7967 24.6867 10.5768 24.4668 10.4219 24.1797C10.2692 23.8926 10.1929 23.5508 10.1929 23.1543C10.1929 22.7738 10.2703 22.4388 10.4253 22.1494C10.5802 21.86 10.799 21.6367 11.0815 21.4795C11.3641 21.32 11.6945 21.2402 12.0728 21.2402C12.4396 21.2402 12.7609 21.3166 13.0366 21.4692C13.3123 21.6196 13.5254 21.8384 13.6758 22.1255C13.8285 22.4103 13.9048 22.7487 13.9048 23.1406V23.4482H11.4712V23.4961C11.4712 23.6921 11.5293 23.8504 11.6455 23.9712C11.764 24.092 11.9246 24.1523 12.1274 24.1523C12.271 24.1523 12.394 24.1239 12.4966 24.0669C12.6014 24.0076 12.6743 23.9245 12.7153 23.8174H13.8979C13.8569 24.0726 13.7578 24.2948 13.6006 24.4839C13.4456 24.6707 13.2406 24.8154 12.9854 24.918C12.7301 25.0182 12.4351 25.0684 12.1001 25.0684ZM12.7085 22.7236C12.7085 22.6143 12.6812 22.5174 12.6265 22.4331C12.5741 22.3465 12.5023 22.2793 12.4111 22.2314C12.32 22.1813 12.2186 22.1562 12.1069 22.1562C11.9907 22.1562 11.8848 22.1802 11.7891 22.228C11.6934 22.2759 11.617 22.3431 11.5601 22.4297C11.5031 22.514 11.4735 22.612 11.4712 22.7236H12.7085ZM16.6392 22.2246H15.9897V23.8105C15.9897 23.9017 16.0137 23.9666 16.0615 24.0054C16.1117 24.0441 16.1903 24.0635 16.2974 24.0635C16.3885 24.0635 16.5184 24.0566 16.687 24.043V25.0068C16.5435 25.0365 16.3384 25.0524 16.0718 25.0547C15.6138 25.0524 15.2686 24.9613 15.0361 24.7812C14.806 24.6012 14.6932 24.321 14.6978 23.9404V22.2246H14.2192V21.2881H14.6978V20.3994H15.9897V21.2881H16.6392V22.2246ZM17.0151 23.9746C17.0151 23.5895 17.1393 23.3024 17.3877 23.1133C17.6383 22.9242 17.9699 22.8171 18.3823 22.792L18.9736 22.7681L19.2505 22.7578V22.457C19.2482 22.3568 19.2083 22.2782 19.1309 22.2212C19.0557 22.1642 18.9543 22.1357 18.8267 22.1357C18.6922 22.1357 18.584 22.1654 18.502 22.2246C18.4199 22.2816 18.3709 22.3682 18.355 22.4844H17.1587C17.1746 22.252 17.2476 22.0423 17.3774 21.8555C17.5096 21.6663 17.6999 21.5171 17.9482 21.4077C18.1966 21.2961 18.4963 21.2402 18.8472 21.2402C19.1844 21.2402 19.4806 21.2926 19.7358 21.3975C19.9933 21.5 20.1916 21.6447 20.3306 21.8315C20.4718 22.0161 20.5425 22.2269 20.5425 22.4639V25H19.3325V24.4805H19.3052C19.1958 24.6787 19.0511 24.8245 18.8711 24.918C18.6934 25.0114 18.478 25.0592 18.2251 25.0615C17.856 25.0592 17.562 24.967 17.3433 24.7847C17.1245 24.6024 17.0151 24.3324 17.0151 23.9746ZM18.2319 23.8994C18.2342 24.0088 18.2729 24.092 18.3481 24.1489C18.4233 24.2059 18.5236 24.2344 18.6489 24.2344C18.7583 24.2344 18.8597 24.2116 18.9531 24.166C19.0465 24.1204 19.1206 24.0566 19.1753 23.9746C19.23 23.8903 19.2573 23.7923 19.2573 23.6807V23.4824C18.9862 23.4893 18.772 23.5007 18.6147 23.5166C18.4985 23.5326 18.4062 23.5758 18.3379 23.6465C18.2695 23.7148 18.2342 23.7992 18.2319 23.8994ZM21.1987 21.2881H22.4907V25H21.1987V21.2881ZM21.8413 20.8848C21.7251 20.8848 21.6169 20.8586 21.5166 20.8062C21.4186 20.7537 21.3411 20.682 21.2842 20.5908C21.2272 20.4997 21.1987 20.3994 21.1987 20.29C21.1987 20.1829 21.2272 20.0838 21.2842 19.9927C21.3411 19.9015 21.4186 19.8298 21.5166 19.7773C21.6169 19.7227 21.7251 19.6953 21.8413 19.6953C21.9575 19.6953 22.0646 19.7227 22.1626 19.7773C22.2606 19.8298 22.3381 19.9015 22.395 19.9927C22.4543 20.0838 22.4839 20.1829 22.4839 20.29C22.4839 20.3994 22.4543 20.4997 22.395 20.5908C22.3381 20.682 22.2606 20.7537 22.1626 20.8062C22.0646 20.8586 21.9575 20.8848 21.8413 20.8848ZM24.4731 25H23.1812V20.0508H24.4731V25Z" fill="white"/>
<path d="M13.374 9.28711C13.2327 8.81771 12.9798 8.45085 12.6152 8.18652C12.2507 7.9222 11.8018 7.78776 11.2686 7.7832C10.7581 7.78776 10.3092 7.91764 9.92188 8.17285C9.53451 8.42806 9.23372 8.79948 9.01953 9.28711C8.80534 9.77474 8.69824 10.3581 8.69824 11.0371C8.69824 11.7253 8.80306 12.3154 9.0127 12.8076C9.22233 13.2998 9.52083 13.6735 9.9082 13.9287C10.2956 14.1839 10.7536 14.3138 11.2822 14.3184C11.7471 14.3184 12.1481 14.234 12.4854 14.0654C12.8271 13.8968 13.0892 13.6598 13.2715 13.3545C13.4583 13.0446 13.5563 12.6823 13.5654 12.2676H11.4189V10.7227H15.5479V11.9531C15.5479 12.8053 15.3656 13.5482 15.001 14.1816C14.641 14.8105 14.1351 15.2936 13.4834 15.6309C12.8363 15.9681 12.098 16.1367 11.2686 16.1367C10.348 16.1367 9.53451 15.9316 8.82812 15.5215C8.1263 15.1068 7.57943 14.5189 7.1875 13.7578C6.80013 12.9922 6.60645 12.0944 6.60645 11.0645C6.60645 10.0208 6.80697 9.11393 7.20801 8.34375C7.60905 7.57357 8.16048 6.98568 8.8623 6.58008C9.56413 6.16992 10.3525 5.96484 11.2275 5.96484C11.9613 5.96484 12.6335 6.10612 13.2441 6.38867C13.8548 6.67122 14.3516 7.06543 14.7344 7.57129C15.1217 8.07259 15.361 8.64453 15.4521 9.28711H13.374ZM22.4248 8.93164C22.3838 8.53971 22.2129 8.23438 21.9121 8.01562C21.6159 7.79688 21.2171 7.6875 20.7158 7.6875C20.374 7.6875 20.0801 7.73763 19.834 7.83789C19.5924 7.93359 19.4079 8.06803 19.2803 8.24121C19.1527 8.41439 19.0889 8.61035 19.0889 8.8291C19.0889 9.15723 19.2301 9.41699 19.5127 9.6084C19.7998 9.79525 20.1872 9.94336 20.6748 10.0527L21.5635 10.2715C22.4795 10.4811 23.2018 10.8229 23.7305 11.2969C24.2591 11.7663 24.5257 12.3906 24.5303 13.1699C24.5303 13.7715 24.3776 14.2956 24.0723 14.7422C23.7669 15.1888 23.3271 15.5329 22.7529 15.7744C22.1787 16.016 21.4951 16.1367 20.7021 16.1367C19.9001 16.1413 19.2051 16.0205 18.6172 15.7744C18.0293 15.5283 17.5713 15.1637 17.2432 14.6807C16.915 14.1976 16.7419 13.6074 16.7236 12.9102H18.7197C18.7516 13.3978 18.943 13.7715 19.2939 14.0312C19.6494 14.2865 20.1097 14.4141 20.6748 14.4141C21.0303 14.4141 21.3424 14.3617 21.6113 14.2568C21.8802 14.152 22.0876 14.0062 22.2334 13.8193C22.3792 13.6325 22.4521 13.416 22.4521 13.1699C22.4521 12.8509 22.3132 12.598 22.0352 12.4111C21.7617 12.2197 21.3356 12.0534 20.7568 11.9121L19.6768 11.6523C17.8812 11.2103 16.9834 10.3125 16.9834 8.95898C16.9834 8.37109 17.1429 7.85156 17.4619 7.40039C17.7855 6.94466 18.2298 6.59147 18.7949 6.34082C19.3646 6.09017 20.0094 5.96484 20.7295 5.96484C21.4495 5.96484 22.0853 6.09017 22.6367 6.34082C23.1882 6.59147 23.6165 6.94238 23.9219 7.39355C24.2272 7.84017 24.3844 8.35286 24.3936 8.93164H22.4248Z" fill="white"/>
</svg>
